<?xml version="1.0" encoding="utf-8"?>
<COLLADA xmlns="http://www.collada.org/2005/11/COLLADASchema" version="1.4.1" xmlns:xsi="http://www.w3.org/2001/XMLSchema-instance">
  <asset>
    <contributor>
      <author>Blender User</author>
      <authoring_tool>Blender 4.3.0 commit date:2024-11-19, commit time:08:52, hash:2b18cad88b13</authoring_tool>
    </contributor>
    <created>2024-12-06T20:48:03</created>
    <modified>2024-12-06T20:48:03</modified>
    <unit name="meter" meter="1"/>
    <up_axis>Z_UP</up_axis>
  </asset>
  <library_cameras>
    <camera id="Camera-camera" name="Camera">
      <optics>
        <technique_common>
          <perspective>
            <xfov sid="xfov">39.59775</xfov>
            <aspect_ratio>1.777778</aspect_ratio>
            <znear sid="znear">0.1</znear>
            <zfar sid="zfar">100</zfar>
          </perspective>
        </technique_common>
      </optics>
      <extra>
        <technique profile="blender">
          <shiftx sid="shiftx" type="float">0</shiftx>
          <shifty sid="shifty" type="float">0</shifty>
          <dof_distance sid="dof_distance" type="float">10</dof_distance>
        </technique>
      </extra>
    </camera>
  </library_cameras>
  <library_lights>
    <light id="Sun_002-light" name="Sun.004">
      <technique_common>
        <directional>
          <color sid="color">1 1 1</color>
        </directional>
      </technique_common>
      <extra>
        <technique profile="blender">
          <type sid="type" type="int">1</type>
          <flag sid="flag" type="int">0</flag>
          <mode sid="mode" type="int">2097153</mode>
          <red sid="red" type="float">1</red>
          <green sid="green" type="float">1</green>
          <blue sid="blue" type="float">1</blue>
          <energy sid="blender_energy" type="float">1</energy>
          <spotsize sid="spotsize" type="float">45</spotsize>
          <spotblend sid="spotblend" type="float">0.15</spotblend>
          <clipsta sid="clipsta" type="float">0.04999995</clipsta>
          <clipend sid="clipend" type="float">40</clipend>
          <radius sid="radius" type="float">0</radius>
          <area_shape sid="area_shape" type="int">0</area_shape>
          <area_size sid="area_size" type="float">0.125</area_size>
          <area_sizey sid="area_sizey" type="float">0.125</area_sizey>
          <area_sizez sid="area_sizez" type="float">0.125</area_sizez>
        </technique>
      </extra>
    </light>
    <light id="Sun_001-light" name="Sun.003">
      <technique_common>
        <directional>
          <color sid="color">1 1 1</color>
        </directional>
      </technique_common>
      <extra>
        <technique profile="blender">
          <type sid="type" type="int">1</type>
          <flag sid="flag" type="int">0</flag>
          <mode sid="mode" type="int">2097153</mode>
          <red sid="red" type="float">1</red>
          <green sid="green" type="float">1</green>
          <blue sid="blue" type="float">1</blue>
          <energy sid="blender_energy" type="float">1</energy>
          <spotsize sid="spotsize" type="float">45</spotsize>
          <spotblend sid="spotblend" type="float">0.15</spotblend>
          <clipsta sid="clipsta" type="float">0.04999995</clipsta>
          <clipend sid="clipend" type="float">40</clipend>
          <radius sid="radius" type="float">0</radius>
          <area_shape sid="area_shape" type="int">0</area_shape>
          <area_size sid="area_size" type="float">0.125</area_size>
          <area_sizey sid="area_sizey" type="float">0.125</area_sizey>
          <area_sizez sid="area_sizez" type="float">0.125</area_sizez>
        </technique>
      </extra>
    </light>
    <light id="Point-light" name="Point">
      <technique_common>
        <point>
          <color sid="color">10 10 10</color>
          <constant_attenuation>1</constant_attenuation>
          <linear_attenuation>0</linear_attenuation>
          <quadratic_attenuation>0</quadratic_attenuation>
        </point>
      </technique_common>
      <extra>
        <technique profile="blender">
          <type sid="type" type="int">0</type>
          <flag sid="flag" type="int">0</flag>
          <mode sid="mode" type="int">2097153</mode>
          <red sid="red" type="float">1</red>
          <green sid="green" type="float">1</green>
          <blue sid="blue" type="float">1</blue>
          <energy sid="blender_energy" type="float">10</energy>
          <spotsize sid="spotsize" type="float">45</spotsize>
          <spotblend sid="spotblend" type="float">0.15</spotblend>
          <clipsta sid="clipsta" type="float">0.04999995</clipsta>
          <clipend sid="clipend" type="float">40</clipend>
          <radius sid="radius" type="float">0</radius>
          <area_shape sid="area_shape" type="int">0</area_shape>
          <area_size sid="area_size" type="float">1.25</area_size>
          <area_sizey sid="area_sizey" type="float">1.25</area_sizey>
          <area_sizez sid="area_sizez" type="float">1.25</area_sizez>
        </technique>
      </extra>
    </light>
    <light id="Sun-light" name="Sun">
      <technique_common>
        <directional>
          <color sid="color">1 1 1</color>
        </directional>
      </technique_common>
      <extra>
        <technique profile="blender">
          <type sid="type" type="int">1</type>
          <flag sid="flag" type="int">0</flag>
          <mode sid="mode" type="int">2097153</mode>
          <red sid="red" type="float">1</red>
          <green sid="green" type="float">1</green>
          <blue sid="blue" type="float">1</blue>
          <energy sid="blender_energy" type="float">1</energy>
          <spotsize sid="spotsize" type="float">45</spotsize>
          <spotblend sid="spotblend" type="float">0.15</spotblend>
          <clipsta sid="clipsta" type="float">0.04999995</clipsta>
          <clipend sid="clipend" type="float">40</clipend>
          <radius sid="radius" type="float">0</radius>
          <area_shape sid="area_shape" type="int">0</area_shape>
          <area_size sid="area_size" type="float">0.125</area_size>
          <area_sizey sid="area_sizey" type="float">0.125</area_sizey>
          <area_sizez sid="area_sizez" type="float">0.125</area_sizez>
        </technique>
      </extra>
    </light>
  </library_lights>
  <library_effects>
    <effect id="Material-effect">
      <profile_COMMON>
        <newparam sid="edit2_jpg-surface">
          <surface type="2D">
            <init_from>edit2_jpg</init_from>
          </surface>
        </newparam>
        <newparam sid="edit2_jpg-sampler">
          <sampler2D>
            <source>edit2_jpg-surface</source>
          </sampler2D>
        </newparam>
        <technique sid="common">
          <lambert>
            <emission>
              <color sid="emission">0 0 0 1</color>
            </emission>
            <diffuse>
              <texture texture="edit2_jpg-sampler" texcoord="UVMap"/>
            </diffuse>
            <index_of_refraction>
              <float sid="ior">1.5</float>
            </index_of_refraction>
          </lambert>
        </technique>
      </profile_COMMON>
    </effect>
  </library_effects>
  <library_images>
    <image id="edit2_jpg" name="edit2_jpg">
      <init_from>/home/ros2/Ros2Projects/oom_ws/src/ros2_term_project/models/pavement_hill/textures/edit2.jpg</init_from>
    </image>
  </library_images>
  <library_materials>
    <material id="Material-material" name="Material">
      <instance_effect url="#Material-effect"/>
    </material>
  </library_materials>
  <library_geometries>
    <geometry id="Cube_001-mesh" name="Cube.001">
      <mesh>
        <source id="Cube_001-mesh-positions">
          <float_array id="Cube_001-mesh-positions-array" count="60">-1 -1 -1 -1 -1 1 -1 1 -1 -1 1 1 1 -1 -1 1 1 -1 -2.049318 -1 -1 -2.049318 -1 0.9999999 -2.049318 1 -1 -2.049318 1 0.9999999 -1 -1 -1 -1 -1 0.9999999 -1 1 -1 -1 1 0.9999999 -4.049318 -1 -1 -4.049318 1 -1 -2.049318 -1 -1 -2.049318 -1 0.9999999 -2.049318 1 -1 -2.049318 1 0.9999999</float_array>
          <technique_common>
            <accessor source="#Cube_001-mesh-positions-array" count="20" stride="3">
              <param name="X" type="float"/>
              <param name="Y" type="float"/>
              <param name="Z" type="float"/>
            </accessor>
          </technique_common>
        </source>
        <source id="Cube_001-mesh-normals">
          <float_array id="Cube_001-mesh-normals-array" count="84">-1 0 0 0 -1 0 0.7071068 0 0.7071068 0 1 0 0 0 -1 -1 0 0 0 1 0 1 0 0 0 -1 0 0 0 -1 0 0 1 1 0 0 0 0 -1 0 1 0 0 -1 0 -0.7071068 0 0.7071068 -1 0 0 0.7071068 0 0.7071068 0 0 -1 -1 0 0 0 1 0 1 0 0 0 -1 0 0 0 -1 0 0 1 1 0 0 0 0 -1 -0.7071068 0 0.7071068</float_array>
          <technique_common>
            <accessor source="#Cube_001-mesh-normals-array" count="28" stride="3">
              <param name="X" type="float"/>
              <param name="Y" type="float"/>
              <param name="Z" type="float"/>
            </accessor>
          </technique_common>
        </source>
        <source id="Cube_001-mesh-map-0">
          <float_array id="Cube_001-mesh-map-0-array" count="168">0.625 0 0.375 0.25 0.375 0 0.2067573 0.5223303 0.125 0.75 0.375 0.75 0.7977576 0.9623122 0.5697404 0.7748804 0.7971812 0.7751926 0.125 0.5 0.16987 0.3941996 0.2533316 0.4474272 0.375 0.5 0.125 0.75 0.125 0.5 0.625 0 0.375 0.25 0.375 0 0.2629989 0.4888306 0.01299893 0.7388306 0.01299893 0.4888306 0.625 0.5 0.375 0.75 0.375 0.5 0.9334776 0.3450048 0.6834776 0.5950048 0.6834776 0.3450048 0.375 0.5 0.125 0.75 0.125 0.5 0.5741266 0.7747009 0.4463098 0.9624491 0.4463098 0.7747009 0.625 0.5 0.375 0.75 0.375 0.5 0.375 0.5 0.125 0.75 0.125 0.5 0.375 0.5 0.125 0.5 0.2239449 0.5450624 0.08035176 0.75 0.03570353 0.75 0.125 0.75 0.4540348 0.9625592 0.2660406 0.7748609 0.2660406 0.9625592 0.625 0 0.625 0.25 0.375 0.25 0.7977576 0.9623122 0.5700813 0.9611914 0.5697404 0.7748804 0.375 0.5 0.375 0.75 0.125 0.75 0.625 0 0.625 0.25 0.375 0.25 0.2629989 0.4888306 0.2629989 0.7388306 0.01299893 0.7388306 0.625 0.5 0.625 0.75 0.375 0.75 0.9334776 0.3450048 0.9334776 0.5950048 0.6834776 0.5950048 0.375 0.5 0.375 0.75 0.125 0.75 0.5741266 0.7747009 0.5741266 0.9624491 0.4463098 0.9624491 0.625 0.5 0.625 0.75 0.375 0.75 0.375 0.5 0.375 0.75 0.125 0.75 0.4540348 0.9625592 0.4540348 0.7748609 0.2660406 0.7748609</float_array>
          <technique_common>
            <accessor source="#Cube_001-mesh-map-0-array" count="84" stride="2">
              <param name="S" type="float"/>
              <param name="T" type="float"/>
            </accessor>
          </technique_common>
        </source>
        <vertices id="Cube_001-mesh-vertices">
          <input semantic="POSITION" source="#Cube_001-mesh-positions"/>
        </vertices>
        <triangles material="Material-material" count="28">
          <input semantic="VERTEX" source="#Cube_001-mesh-vertices" offset="0"/>
          <input semantic="NORMAL" source="#Cube_001-mesh-normals" offset="1"/>
          <input semantic="TEXCOORD" source="#Cube_001-mesh-map-0" offset="2" set="0"/>
          <p>1 0 0 2 0 1 0 0 2 1 1 3 0 1 4 4 1 5 1 2 6 5 2 7 3 2 8 2 3 9 3 3 10 5 3 11 5 4 12 0 4 13 2 4 14 7 5 15 8 5 16 6 5 17 9 6 18 12 6 19 8 6 20 13 7 21 10 7 22 12 7 23 11 8 24 6 8 25 10 8 26 12 9 27 6 9 28 8 9 29 9 10 30 11 10 31 13 10 32 19 11 33 16 11 34 18 11 35 18 12 36 14 12 37 15 12 38 18 13 39 15 13 40 19 13 41 16 14 42 17 14 43 14 14 44 17 15 45 15 15 46 14 15 47 1 16 48 3 16 49 2 16 50 1 17 51 4 17 52 5 17 53 5 18 54 4 18 55 0 18 56 7 19 57 9 19 58 8 19 59 9 20 60 13 20 61 12 20 62 13 21 63 11 21 64 10 21 65 11 22 66 7 22 67 6 22 68 12 23 69 10 23 70 6 23 71 9 24 72 7 24 73 11 24 74 19 25 75 17 25 76 16 25 77 18 26 78 16 26 79 14 26 80 17 27 81 19 27 82 15 27 83</p>
        </triangles>
      </mesh>
    </geometry>
  </library_geometries>
  <library_visual_scenes>
    <visual_scene id="Scene" name="Scene">
      <node id="Sun_002" name="Sun.002" type="NODE">
        <matrix sid="transform">-0.2428709 -0.9697385 -0.02491866 7.217427 0.969943 -0.2423652 -0.02167331 -1.483023 0.01497802 -0.0294335 0.9994545 10.91502 0 0 0 1</matrix>
        <instance_light url="#Sun_002-light"/>
      </node>
      <node id="Sun_001" name="Sun.001" type="NODE">
        <matrix sid="transform">-0.2428709 -0.9697385 -0.02491866 -7.737053 0.969943 -0.2423652 -0.02167331 -0.3295012 0.01497802 -0.0294335 0.9994545 10.39781 0 0 0 1</matrix>
        <instance_light url="#Sun_001-light"/>
      </node>
      <node id="Point" name="Point" type="NODE">
        <matrix sid="transform">1 0 0 0 0 1 0 0 0 0 1 0 0 0 0 1</matrix>
        <instance_light url="#Point-light"/>
      </node>
      <node id="Cube_001" name="Cube.001" type="NODE">
        <matrix sid="transform">4.871945 0 0 7.265 0 4 0 0 0 0 1 1.5 0 0 0 1</matrix>
        <instance_geometry url="#Cube_001-mesh" name="Cube.001">
          <bind_material>
            <technique_common>
              <instance_material symbol="Material-material" target="#Material-material">
                <bind_vertex_input semantic="UVMap" input_semantic="TEXCOORD" input_set="0"/>
              </instance_material>
            </technique_common>
          </bind_material>
        </instance_geometry>
      </node>
      <node id="Sun" name="Sun" type="NODE">
        <matrix sid="transform">-0.2428709 -0.9697385 -0.02491866 0 0.969943 -0.2423652 -0.02167331 0 0.01497802 -0.0294335 0.9994545 11.58 0 0 0 1</matrix>
        <instance_light url="#Sun-light"/>
      </node>
      <node id="Camera" name="Camera" type="NODE">
        <matrix sid="transform">0.6859207 -0.3240135 0.6515582 7.358891 0.7276763 0.3054208 -0.6141704 -6.925791 0 0.8953956 0.4452714 4.958309 0 0 0 1</matrix>
        <instance_camera url="#Camera-camera"/>
      </node>
    </visual_scene>
  </library_visual_scenes>
  <scene>
    <instance_visual_scene url="#Scene"/>
  </scene>
</COLLADA>
